<?xml version="1.0" encoding="UTF-8"?>
<svg width="24px" height="24px" viewBox="0 0 24 24" version="1.1" xmlns="http://www.w3.org/2000/svg" xmlns:xlink="http://www.w3.org/1999/xlink">
    <title>MindSpore2备份 2</title>
    <defs>
        <linearGradient x1="50%" y1="-2.19523983%" x2="97.5471079%" y2="100%" id="linearGradient-1">
            <stop stop-color="#8FF5FF" offset="0%"></stop>
            <stop stop-color="#6182FF" offset="100%"></stop>
        </linearGradient>
        <linearGradient x1="0%" y1="52.3104076%" x2="100%" y2="52.3104076%" id="linearGradient-2">
            <stop stop-color="#8FF5FF" offset="0%"></stop>
            <stop stop-color="#6181FF" offset="100%"></stop>
        </linearGradient>
        <linearGradient x1="0%" y1="52.3104076%" x2="100%" y2="52.3104076%" id="linearGradient-3">
            <stop stop-color="#FFFFFF" offset="0%"></stop>
            <stop stop-color="#FFFFFF" offset="100%"></stop>
        </linearGradient>
    </defs>
    <g id="页面-1" stroke="none" stroke-width="1" fill="none" fill-rule="evenodd">
        <g id="编组-34" transform="translate(-0.000000, 0.000000)">
            <g id="编组-131备份">
                <g id="编组-19备份-2" fill="url(#linearGradient-1)">
                    <rect id="矩形" x="0" y="0" width="24" height="24" rx="3.6"></rect>
                </g>
                <g id="编组" transform="translate(8.243649, 5.981847)"></g>
            </g>
            <g id="形状结合-2" transform="translate(2.094362, 6.500000)" fill="url(#linearGradient-3)" fill-rule="nonzero">
                <path d="M18.1116505,2.16567476 L18.961165,2.00643397 C19.0404531,2.44169213 19.2669903,2.65932122 19.6407767,2.65932122 C19.9352751,2.64870516 20.0881877,2.54254464 20.0995146,2.34083963 C20.0881877,2.18159884 19.986246,2.07013029 19.7936893,2.00643397 C19.6351133,1.94273765 19.4255663,1.88434936 19.1650485,1.8312691 C18.5307443,1.69326041 18.2249191,1.39070291 18.2475728,0.92359659 C18.3042071,0.339713688 18.7289644,0.0318481583 19.5218447,0 C20.3373786,0 20.8131068,0.318481583 20.9490291,0.955444748 L20.1165049,1.1465337 C20.0372168,0.796203957 19.8446602,0.626347113 19.538835,0.636963166 C19.3122977,0.647579218 19.1877023,0.73250764 19.1650485,0.891748432 C19.1423948,1.05098922 19.3066343,1.16245778 19.657767,1.22615409 C19.9749191,1.28985041 20.2354369,1.37477883 20.4393204,1.48093936 C20.8017799,1.67202831 20.9886731,1.95335371 21,2.32491555 C20.9773463,2.95126267 20.5299353,3.26974425 19.657767,3.2803603 C18.7855987,3.30159241 18.2702265,2.93003056 18.1116505,2.16567476 Z M0,0.808589352 L3.14131607,0.808589352 L3.14131607,2.1674441 L1.208,2.167 L1.208,9.641 L3.14131607,9.64114525 L3.14131607,11 L0,11 L0,0.808589352 Z M17.3980583,11 L14.2567422,11 L14.2567422,9.64114525 L16.189,9.641 L16.189,2.167 L14.2567422,2.1674441 L14.2567422,0.808589352 L17.3980583,0.808589352 L17.3980583,11 Z M4.69360949,2.1674441 L4.03248328,9.18819366 L5.87281122,9.18819366 L6.11445092,5.4250719 L7.8716548,9.18819366 L9.52640345,9.18819366 L10.9955728,5.4250719 L11.525247,9.18819366 L13.365575,9.18819366 L12.6406559,2.1674441 L10.8099935,2.1674441 L8.72802589,7.28760881 L6.52427184,2.1674441 L4.69360949,2.1674441 Z" id="形状结合"></path>
            </g>
        </g>
    </g>
</svg>